<?xml version="1.0" encoding="utf-8"?>
<!-- Generator: Adobe Illustrator 23.0.1, SVG Export Plug-In . SVG Version: 6.00 Build 0)  -->
<svg version="1.1" id="Layer_1" xmlns="http://www.w3.org/2000/svg" xmlns:xlink="http://www.w3.org/1999/xlink" x="0px" y="0px"
	 viewBox="0 0 567.3 164.7" style="enable-background:new 0 0 567.3 164.7;" xml:space="preserve">
<style type="text/css">
	.st0{fill:#001BDA;}
	.st1{fill:#3E4B59;}
	.st2{fill:#0074FF;}
</style>
<g>
	<g>
		<g>
			<g>
				<path class="st0" d="M384.4,132.6c-11.6,0-26.3-3.5-34.8-11.7c-8.5-8.2-12.4-19.9-12.4-31.6V29.5h31.1c0,19.9,0,39.9,0,59.8
					c0,5.5,1.3,11.6,5.7,15.4c4.4,3.7,11.3,4.3,16.6,2.3c8.1-3,9.8-11.6,9.8-19.3c0-12.1,0-24.3,0-36.4c0-7.3,0-14.6,0-21.9h32.4
					v59.9c0,11.4-3.8,22.9-11.9,31.1C412.4,129,396.2,132.6,384.4,132.6z"/>
				<path class="st0" d="M485.1,132.7c-16.6,0-32.8-5.5-44.4-15.2l-0.5-0.4l9.8-12.8c2-2.7,5-4.1,8.7-4.1c2.8,0,5.9,0.8,8.8,2.3
					c5.9,3,11.2,5.4,17.6,5.6l0.8,0c7,0,10.7-2.1,11.2-6.2c0.7-5.9-6.6-7.6-11.9-8.9l-2.8-0.7c-12.3-2.9-26.2-6.2-32.9-17.6
					c-6.5-11-4.1-25.5,5.6-34.6c10.3-9.7,24.6-11.7,34.8-11.7c1.1,0,2.3,0,3.4,0.1c14.1,0.6,26.3,4.8,36.3,12.5l0.5,0.3L521.8,54
					c-2.4,3.2-5.4,4.8-9.2,4.8c-2.4,0-5.1-0.7-8.1-2c-4.5-2-9.5-3.9-15.2-3.9c-0.9,0-1.8,0-2.7,0.1c-1.9,0.2-4.5,0.7-6.2,2.4
					c-0.9,1-1.5,2.4-1.4,3.7c0,0.7,0.2,1.6,1,2.3c3.5,3,8.8,4.2,13.9,5.4c1.6,0.4,3.1,0.7,4.5,1.1c13.9,3.8,27.3,9.2,31,22.1
					c3.5,12.1-1.8,26-12.8,33.9C506.5,131.2,493.9,132.7,485.1,132.7z"/>
			</g>
			<g>
				<path class="st0" d="M552.7,29.5c-7.1,0-12.8,5.8-12.8,13c0,7.1,5.7,13,12.8,13c7.1,0,13-5.8,13-13
					C565.7,35.3,559.9,29.5,552.7,29.5z M552.7,53.4c-5.9,0-10.8-5-10.8-11s4.9-11,10.8-11c6,0,11,4.9,11,11S558.8,53.4,552.7,53.4z
					"/>
				<g>
					<g>
						<path class="st0" d="M547.1,35.8h6.2c1.7,0,3.1,0.5,4,1.4c0.8,0.8,1.2,1.8,1.2,3.1v0c0,1.1-0.3,2-0.8,2.7
							c-0.5,0.7-1.2,1.2-2.1,1.5l3.3,4.9h-3.5l-2.9-4.4h-2.4v4.4h-3V35.8z M553.1,42.4c0.7,0,1.3-0.2,1.7-0.5
							c0.4-0.3,0.6-0.8,0.6-1.4v0c0-0.6-0.2-1.1-0.6-1.5c-0.4-0.3-1-0.5-1.7-0.5h-3v3.9H553.1z"/>
					</g>
				</g>
			</g>
		</g>
		<path class="st0" d="M308.2,93.4c4.7-2.6,7.9-5.7,10.8-9.7c3.8-5.2,5.7-11.8,5.7-19.6v-0.3c0-9.7-3-17.7-9.1-23.7
			c-3.4-3.4-7.8-6.1-13.2-8c-5.3-1.9-11.9-2.9-19.5-2.9h-47.5v100.2h30.1v-29.4h9.4c1.2,0,2.3,0,3.4-0.1l0,0.1
			c0,0,8.3,12.4,14.3,21.6c5.1,7.8,15.6,7.8,22.8,7.8c7.2,0,17.3,0,17.3,0S314.8,103.2,308.2,93.4z M265.5,75.8V55.6h16.1
			c4.1,0,7.3,0.9,9.6,2.6c2.2,1.6,3.3,4.1,3.3,7.4v0.3c0,3-1.1,5.4-3.2,7.1c-2.2,1.8-5.5,2.8-9.6,2.8H265.5z"/>
	</g>
	<g>
		<g>
			<path class="st1" d="M236.6,148.8h6.5c0.9,0,1.8,0.1,2.5,0.4c0.7,0.3,1.3,0.6,1.8,1.1c0.4,0.4,0.7,0.8,0.9,1.3
				c0.2,0.5,0.3,1.1,0.3,1.7v0c0,0.6-0.1,1.2-0.3,1.7c-0.2,0.5-0.5,0.9-0.9,1.3s-0.8,0.7-1.3,0.9c-0.5,0.2-1.1,0.4-1.7,0.5l4.7,6.2
				h-2.1l-4.4-5.9h-4.3v5.9h-1.7V148.8z M243,156.6c0.6,0,1.1-0.1,1.6-0.2c0.5-0.1,0.9-0.4,1.2-0.6c0.3-0.3,0.6-0.6,0.8-1
				c0.2-0.4,0.3-0.8,0.3-1.3v0c0-0.9-0.3-1.7-1-2.2c-0.7-0.5-1.6-0.8-2.9-0.8h-4.7v6.2H243z"/>
			<path class="st1" d="M253.6,148.8h1.7v15.2h-1.7V148.8z"/>
			<path class="st1" d="M267.9,164.3c-1.2,0-2.2-0.2-3.2-0.6c-1-0.4-1.8-1-2.4-1.7c-0.7-0.7-1.2-1.6-1.6-2.5c-0.4-1-0.6-1.9-0.6-3v0
				c0-1,0.2-2,0.6-3c0.4-1,0.9-1.8,1.6-2.5c0.7-0.7,1.5-1.3,2.5-1.7c1-0.4,2-0.6,3.2-0.6c1.2,0,2.2,0.2,3.2,0.6c1,0.4,1.8,1,2.4,1.7
				c0.7,0.7,1.2,1.6,1.6,2.5c0.4,1,0.6,1.9,0.6,3v0c0,1-0.2,2-0.6,3c-0.4,1-0.9,1.8-1.6,2.5c-0.7,0.7-1.5,1.3-2.5,1.7
				C270.1,164.1,269.1,164.3,267.9,164.3z M267.9,162.7c0.9,0,1.7-0.2,2.4-0.5c0.7-0.3,1.4-0.8,1.9-1.3c0.5-0.6,0.9-1.2,1.2-2
				c0.3-0.8,0.4-1.6,0.4-2.4v0c0-0.9-0.1-1.7-0.4-2.4c-0.3-0.8-0.7-1.4-1.3-2c-0.5-0.6-1.2-1-1.9-1.3c-0.7-0.3-1.5-0.5-2.4-0.5
				c-0.9,0-1.7,0.2-2.4,0.5c-0.7,0.3-1.4,0.8-1.9,1.3c-0.5,0.6-0.9,1.2-1.2,2c-0.3,0.8-0.4,1.6-0.4,2.4v0c0,0.9,0.1,1.7,0.4,2.4
				c0.3,0.8,0.7,1.4,1.3,2s1.2,1,1.9,1.4C266.3,162.6,267.1,162.7,267.9,162.7z"/>
			<path class="st1" d="M294.1,164.3c-0.9,0-1.8-0.1-2.6-0.4c-0.8-0.3-1.4-0.7-2-1.3c-0.6-0.6-1-1.3-1.3-2.1
				c-0.3-0.8-0.5-1.8-0.5-2.9v-8.9h1.7v8.8c0,1.7,0.4,2.9,1.2,3.8c0.8,0.9,2,1.3,3.4,1.3c1.4,0,2.5-0.4,3.4-1.3
				c0.8-0.8,1.2-2.1,1.2-3.8v-8.9h1.7v8.7c0,1.1-0.2,2.1-0.5,2.9c-0.3,0.8-0.7,1.5-1.3,2.1c-0.6,0.6-1.2,1-2,1.3
				C296,164.2,295.1,164.3,294.1,164.3z"/>
			<path class="st1" d="M305.7,148.8h6.5c0.9,0,1.8,0.1,2.5,0.4c0.7,0.3,1.3,0.6,1.8,1.1c0.4,0.4,0.7,0.8,0.9,1.3
				c0.2,0.5,0.3,1.1,0.3,1.7v0c0,0.6-0.1,1.2-0.3,1.7c-0.2,0.5-0.5,0.9-0.9,1.3s-0.8,0.7-1.3,0.9c-0.5,0.2-1.1,0.4-1.7,0.5l4.7,6.2
				h-2.1l-4.4-5.9h-4.3v5.9h-1.7V148.8z M312.1,156.6c0.6,0,1.1-0.1,1.6-0.2c0.5-0.1,0.9-0.4,1.2-0.6c0.3-0.3,0.6-0.6,0.8-1
				c0.2-0.4,0.3-0.8,0.3-1.3v0c0-0.9-0.3-1.7-1-2.2c-0.7-0.5-1.6-0.8-2.9-0.8h-4.7v6.2H312.1z"/>
			<path class="st1" d="M328.6,164.3c-0.9,0-1.8-0.1-2.6-0.4c-0.8-0.3-1.4-0.7-2-1.3c-0.6-0.6-1-1.3-1.3-2.1
				c-0.3-0.8-0.5-1.8-0.5-2.9v-8.9h1.7v8.8c0,1.7,0.4,2.9,1.2,3.8c0.8,0.9,2,1.3,3.4,1.3c1.4,0,2.5-0.4,3.4-1.3s1.2-2.1,1.2-3.8
				v-8.9h1.7v8.7c0,1.1-0.2,2.1-0.5,2.9c-0.3,0.8-0.7,1.5-1.3,2.1c-0.6,0.6-1.2,1-2,1.3C330.4,164.2,329.5,164.3,328.6,164.3z"/>
			<path class="st1" d="M347.2,164.3c-1.2,0-2.3-0.2-3.2-0.6c-1-0.4-1.8-1-2.4-1.7c-0.7-0.7-1.2-1.5-1.5-2.5c-0.4-1-0.5-2-0.5-3.1v0
				c0-1,0.2-2,0.6-3c0.4-1,0.9-1.8,1.6-2.5c0.7-0.7,1.5-1.3,2.4-1.7c0.9-0.4,2-0.6,3.1-0.6c0.6,0,1.2,0,1.8,0.1
				c0.5,0.1,1,0.2,1.5,0.4c0.5,0.2,0.9,0.4,1.3,0.6c0.4,0.3,0.8,0.5,1.2,0.9l-1.1,1.3c-0.3-0.3-0.6-0.5-0.9-0.7
				c-0.3-0.2-0.7-0.4-1-0.5c-0.4-0.2-0.8-0.3-1.2-0.4c-0.4-0.1-0.9-0.1-1.5-0.1c-0.8,0-1.6,0.2-2.3,0.5c-0.7,0.3-1.3,0.8-1.8,1.3
				c-0.5,0.6-0.9,1.2-1.2,2c-0.3,0.8-0.4,1.6-0.4,2.4v0c0,0.9,0.1,1.8,0.4,2.5c0.3,0.8,0.7,1.4,1.2,2s1.2,1,1.9,1.3
				c0.7,0.3,1.6,0.5,2.5,0.5c0.9,0,1.7-0.1,2.5-0.4c0.8-0.3,1.4-0.7,1.9-1.1v-3.8H347v-1.5h6.3v6.1c-0.7,0.6-1.6,1.2-2.6,1.6
				C349.6,164.1,348.5,164.3,347.2,164.3z"/>
			<path class="st1" d="M364.4,164.3c-0.9,0-1.8-0.1-2.6-0.4c-0.8-0.3-1.4-0.7-2-1.3c-0.6-0.6-1-1.3-1.3-2.1
				c-0.3-0.8-0.5-1.8-0.5-2.9v-8.9h1.7v8.8c0,1.7,0.4,2.9,1.2,3.8s2,1.3,3.4,1.3c1.4,0,2.5-0.4,3.4-1.3s1.2-2.1,1.2-3.8v-8.9h1.7
				v8.7c0,1.1-0.2,2.1-0.5,2.9c-0.3,0.8-0.7,1.5-1.3,2.1c-0.6,0.6-1.2,1-2,1.3C366.2,164.2,365.3,164.3,364.4,164.3z"/>
			<path class="st1" d="M381.5,148.7h1.6l6.9,15.4h-1.9l-1.8-4h-8.3l-1.8,4h-1.8L381.5,148.7z M385.8,158.5l-3.5-7.8l-3.5,7.8H385.8
				z"/>
			<path class="st1" d="M398.9,158l-6.3-9.2h2.1l5.1,7.6l5.2-7.6h2l-6.3,9.2v6.1h-1.7V158z"/>
			<path class="st1" d="M422.4,164.3c-1.2,0-2.3-0.2-3.3-0.6s-2-1-2.9-1.8l1.1-1.3c0.8,0.7,1.6,1.3,2.4,1.6c0.8,0.4,1.7,0.5,2.8,0.5
				c1,0,1.9-0.2,2.5-0.7c0.6-0.5,0.9-1.1,0.9-1.9v0c0-0.3-0.1-0.7-0.2-0.9c-0.1-0.3-0.3-0.5-0.6-0.8c-0.3-0.2-0.7-0.4-1.2-0.6
				c-0.5-0.2-1.2-0.4-2-0.5c-0.9-0.2-1.6-0.4-2.3-0.7c-0.6-0.2-1.2-0.5-1.6-0.9c-0.4-0.3-0.7-0.8-0.9-1.2c-0.2-0.5-0.3-1-0.3-1.6v0
				c0-0.6,0.1-1.1,0.4-1.7c0.2-0.5,0.6-0.9,1-1.3c0.5-0.4,1-0.7,1.6-0.9c0.6-0.2,1.3-0.3,2-0.3c1.1,0,2.1,0.2,2.9,0.5
				c0.8,0.3,1.6,0.8,2.4,1.4l-1,1.3c-0.7-0.6-1.4-1-2.1-1.3c-0.7-0.3-1.5-0.4-2.3-0.4c-1,0-1.8,0.2-2.4,0.7
				c-0.6,0.5-0.9,1.1-0.9,1.8v0c0,0.4,0.1,0.7,0.2,1c0.1,0.3,0.3,0.5,0.6,0.8c0.3,0.2,0.7,0.5,1.3,0.7c0.5,0.2,1.2,0.4,2.1,0.6
				c1.7,0.4,2.9,0.9,3.7,1.6c0.8,0.7,1.2,1.6,1.2,2.7v0c0,0.7-0.1,1.2-0.4,1.8c-0.3,0.5-0.6,1-1.1,1.4c-0.5,0.4-1,0.7-1.6,0.9
				C423.8,164.2,423.1,164.3,422.4,164.3z"/>
			<path class="st1" d="M432.2,148.8h11v1.6h-9.3v5.2h8.3v1.6h-8.3v5.3h9.4v1.6h-11.1V148.8z"/>
			<path class="st1" d="M454.9,164.3c-1.2,0-2.3-0.2-3.2-0.6c-1-0.4-1.8-1-2.4-1.7c-0.7-0.7-1.2-1.5-1.5-2.5c-0.4-1-0.5-2-0.5-3.1v0
				c0-1,0.2-2,0.6-3c0.4-1,0.9-1.8,1.6-2.5c0.7-0.7,1.5-1.3,2.4-1.7c0.9-0.4,2-0.6,3.1-0.6c0.6,0,1.2,0,1.8,0.1
				c0.5,0.1,1,0.2,1.5,0.4c0.5,0.2,0.9,0.4,1.3,0.6c0.4,0.3,0.8,0.5,1.2,0.9l-1.1,1.3c-0.3-0.3-0.6-0.5-0.9-0.7
				c-0.3-0.2-0.7-0.4-1-0.5c-0.4-0.2-0.8-0.3-1.2-0.4c-0.4-0.1-0.9-0.1-1.5-0.1c-0.8,0-1.6,0.2-2.3,0.5c-0.7,0.3-1.3,0.8-1.8,1.3
				c-0.5,0.6-0.9,1.2-1.2,2c-0.3,0.8-0.4,1.6-0.4,2.4v0c0,0.9,0.1,1.8,0.4,2.5c0.3,0.8,0.7,1.4,1.2,2s1.2,1,1.9,1.3
				c0.7,0.3,1.6,0.5,2.5,0.5c0.9,0,1.7-0.1,2.5-0.4c0.8-0.3,1.4-0.7,1.9-1.1v-3.8h-4.6v-1.5h6.3v6.1c-0.7,0.6-1.6,1.2-2.6,1.6
				C457.4,164.1,456.2,164.3,454.9,164.3z"/>
			<path class="st1" d="M472.1,164.3c-0.9,0-1.8-0.1-2.6-0.4c-0.8-0.3-1.4-0.7-2-1.3c-0.6-0.6-1-1.3-1.3-2.1
				c-0.3-0.8-0.5-1.8-0.5-2.9v-8.9h1.7v8.8c0,1.7,0.4,2.9,1.2,3.8s2,1.3,3.4,1.3c1.4,0,2.5-0.4,3.4-1.3s1.2-2.1,1.2-3.8v-8.9h1.7
				v8.7c0,1.1-0.2,2.1-0.5,2.9c-0.3,0.8-0.7,1.5-1.3,2.1c-0.6,0.6-1.2,1-2,1.3C473.9,164.2,473.1,164.3,472.1,164.3z"/>
			<path class="st1" d="M483.6,148.8h6.5c0.9,0,1.8,0.1,2.5,0.4c0.7,0.3,1.3,0.6,1.8,1.1c0.4,0.4,0.7,0.8,0.9,1.3
				c0.2,0.5,0.3,1.1,0.3,1.7v0c0,0.6-0.1,1.2-0.3,1.7c-0.2,0.5-0.5,0.9-0.9,1.3s-0.8,0.7-1.3,0.9s-1.1,0.4-1.7,0.5l4.7,6.2h-2.1
				l-4.4-5.9h-4.3v5.9h-1.7V148.8z M490,156.6c0.6,0,1.1-0.1,1.6-0.2s0.9-0.4,1.2-0.6c0.3-0.3,0.6-0.6,0.8-1
				c0.2-0.4,0.3-0.8,0.3-1.3v0c0-0.9-0.3-1.7-1-2.2c-0.7-0.5-1.6-0.8-2.9-0.8h-4.7v6.2H490z"/>
			<path class="st1" d="M507.5,164.3c-1.2,0-2.2-0.2-3.2-0.6c-1-0.4-1.8-1-2.4-1.7c-0.7-0.7-1.2-1.6-1.6-2.5c-0.4-1-0.6-1.9-0.6-3v0
				c0-1,0.2-2,0.6-3c0.4-1,0.9-1.8,1.6-2.5c0.7-0.7,1.5-1.3,2.5-1.7c1-0.4,2-0.6,3.2-0.6c1.2,0,2.2,0.2,3.2,0.6c1,0.4,1.8,1,2.4,1.7
				c0.7,0.7,1.2,1.6,1.6,2.5c0.4,1,0.6,1.9,0.6,3v0c0,1-0.2,2-0.6,3c-0.4,1-0.9,1.8-1.6,2.5c-0.7,0.7-1.5,1.3-2.5,1.7
				C509.8,164.1,508.7,164.3,507.5,164.3z M507.6,162.7c0.9,0,1.7-0.2,2.4-0.5c0.7-0.3,1.4-0.8,1.9-1.3c0.5-0.6,0.9-1.2,1.2-2
				c0.3-0.8,0.4-1.6,0.4-2.4v0c0-0.9-0.1-1.7-0.4-2.4c-0.3-0.8-0.7-1.4-1.3-2c-0.5-0.6-1.2-1-1.9-1.3c-0.7-0.3-1.5-0.5-2.4-0.5
				c-0.9,0-1.7,0.2-2.4,0.5c-0.7,0.3-1.4,0.8-1.9,1.3s-0.9,1.2-1.2,2c-0.3,0.8-0.4,1.6-0.4,2.4v0c0,0.9,0.1,1.7,0.4,2.4
				c0.3,0.8,0.7,1.4,1.3,2c0.5,0.6,1.2,1,1.9,1.4C505.9,162.6,506.7,162.7,507.6,162.7z"/>
			<path class="st1" d="M525.2,164.3c-1.2,0-2.3-0.2-3.3-0.6s-2-1-2.9-1.8l1.1-1.3c0.8,0.7,1.6,1.3,2.4,1.6c0.8,0.4,1.7,0.5,2.8,0.5
				c1,0,1.9-0.2,2.5-0.7c0.6-0.5,0.9-1.1,0.9-1.9v0c0-0.3-0.1-0.7-0.2-0.9c-0.1-0.3-0.3-0.5-0.6-0.8c-0.3-0.2-0.7-0.4-1.2-0.6
				c-0.5-0.2-1.2-0.4-2-0.5c-0.9-0.2-1.6-0.4-2.3-0.7c-0.6-0.2-1.2-0.5-1.6-0.9c-0.4-0.3-0.7-0.8-0.9-1.2c-0.2-0.5-0.3-1-0.3-1.6v0
				c0-0.6,0.1-1.1,0.4-1.7c0.2-0.5,0.6-0.9,1-1.3c0.5-0.4,1-0.7,1.6-0.9c0.6-0.2,1.3-0.3,2-0.3c1.1,0,2.1,0.2,2.9,0.5
				c0.8,0.3,1.6,0.8,2.4,1.4l-1,1.3c-0.7-0.6-1.4-1-2.1-1.3c-0.7-0.3-1.5-0.4-2.3-0.4c-1,0-1.8,0.2-2.4,0.7s-0.9,1.1-0.9,1.8v0
				c0,0.4,0.1,0.7,0.2,1s0.3,0.5,0.6,0.8c0.3,0.2,0.7,0.5,1.3,0.7c0.5,0.2,1.2,0.4,2.1,0.6c1.7,0.4,2.9,0.9,3.7,1.6
				c0.8,0.7,1.2,1.6,1.2,2.7v0c0,0.7-0.1,1.2-0.4,1.8c-0.3,0.5-0.6,1-1.1,1.4c-0.5,0.4-1,0.7-1.6,0.9
				C526.6,164.2,525.9,164.3,525.2,164.3z"/>
		</g>
	</g>
	<path class="st0" d="M168.4,27.1c-6.4,4.3-9.8,9.1-11.7,13.5c-1.2-2.5-3.5-5.2-6.5-7.4c-9.9-7.3-27.9-12.8-39.3-21.1
		c0,0,0.5,14.7,11.2,22.5c9.5,7,20,8.3,25,11.6c4.9,3.2,6.1,6.9,7.1,8.9l0,0v0.1c1-2.6,7.5-11.8,16.2-15.3
		c11.4-4.7,18.3-4.4,31.3-11.7c15.9-9,20.4-27.8,20.4-27.8C204,14.6,182.8,17.4,168.4,27.1z"/>
	<path class="st2" d="M12.3,113.5L1.6,132.3c28.4-15,57.9-15.9,91.8-3.8c45.6,16.2,65.1,10.6,74-4.7c6.1-10.9,26.5-46.1,26.5-46.1
		c-50.3,40.3-82.8,4-141.8,12.9C36.3,92.9,19.2,101.5,12.3,113.5z"/>
	<path class="st0" d="M151.6,96.7c0.6-0.1,1.2-0.1,1.8-0.2c12.7-1.7,25.9-7,40.5-18.7l15.8-27.8c-53.6,40.2-101.8,2.6-139.9,6.7
		c-18.2,2-28.7,7.3-35.6,19.5c-7,12.3-8.3,14.1-8.3,14.1c8.9-5,22.1-7.9,35-8.6C92.2,79.9,122.1,97.2,151.6,96.7z"/>
</g>
</svg>
